<svg xmlns="http://www.w3.org/2000/svg" viewBox="0 0 1170 127"><defs><style>.cls-1{fill:#fff;}</style></defs><title>Royal banner</title><g id="Layer_2" data-name="Layer 2"><g id="Layer_1-2" data-name="Layer 1"><rect width="1170" height="127"/><path class="cls-1" d="M1169.62,39.56l-5,3.61C1148,55,1125.2,68.76,1108.8,69c6.3-17.81-4.19-52.87-41.1-54.94-23.2-1.3-47.92,17-48.33,47.31-.7,52.29,75.92,72.63,145.27,29.85,0,0,2-1.28,5-3.2Z"/><path d="M1035.42,68.91A3.87,3.87,0,0,0,1038,70a1.78,1.78,0,0,0,2-1.71c0-2.49-4.95-1.85-4.95-4.92a2.85,2.85,0,0,1,3.09-2.65,3.85,3.85,0,0,1,2.65,1l-.48.81a3.38,3.38,0,0,0-2.17-.84,1.89,1.89,0,0,0-2.09,1.7c0,2.35,4.95,1.67,4.95,4.92a2.73,2.73,0,0,1-3,2.67,4.37,4.37,0,0,1-3.14-1.26Z"/><path d="M1060,60.71a5,5,0,0,1,3.57,1.28l-.52.72a4.67,4.67,0,0,0-3-1.1,4,4,0,0,0-4,4.13,4.08,4.08,0,0,0,4,4.28,4.64,4.64,0,0,0,3.21-1.32l.56.69a5.29,5.29,0,0,1-3.79,1.53,5,5,0,0,1-5-5.17A4.91,4.91,0,0,1,1060,60.71Z"/><path d="M1066.55,60.88h1v9.87h-1Z"/><path d="M1070.45,60.88H1076v.87h-4.61v3.6h3.76v.87h-3.76v3.67h4.86v.87h-5.84Z"/><path d="M1081.79,61.75h-3.57v-.87h8.09v.87h-3.55v9h-1Z"/><path d="M1091.78,66.51l-3.34-5.63h1.11l2.1,3.58c.3.51.61,1.18.61,1.18h0s.3-.66.61-1.18l2.1-3.58h1.1l-3.33,5.63v4.24h-1Z"/><path d="M1048.13,60.73a5,5,0,0,1,5,5,5,5,0,1,1-10.09,0A5,5,0,0,1,1048.13,60.73Zm0,9.31a4.12,4.12,0,0,0,4-4.27,4,4,0,1,0-8.06,0A4.11,4.11,0,0,0,1048.13,70Z"/><path d="M1048.38,41.78a5,5,0,0,1,5,5,5,5,0,1,1-10.09,0A5,5,0,0,1,1048.38,41.78Zm0,9.31a4.12,4.12,0,0,0,4-4.27,4,4,0,1,0-8.06,0A4.11,4.11,0,0,0,1048.38,51.1Z"/><path d="M1057.61,47.58,1054.27,42h1.11l2.1,3.58c.3.51.61,1.18.61,1.18h0s.3-.66.61-1.18l2.1-3.58h1.1l-3.33,5.63v4.24h-1Z"/><path d="M1068.07,48.68h-4L1063,51.83h-1l3.64-9.87h1l3.64,9.88h-1Zm-2-5.7s-.21.81-.38,1.28l-1.33,3.58h3.41l-1.3-3.58c-.17-.46-.38-1.28-.38-1.28Z"/><path d="M1072.68,42h1v9h4.59v.87h-5.57Z"/><path d="M1037.89,80.9h-3V79.45h7.78V80.9h-3V88.7h-1.69Z"/><path d="M1045.07,79.45h5.56V80.9h-3.87v2.42h3.12v1.45h-3.12v2.49h4.08V88.7h-5.77Z"/><path d="M1062.14,86.33h-3.26l-.78,2.37h-1.74l3.27-9.25h1.77l3.27,9.25h-1.74Zm-1.63-5.28s-.21.91-.39,1.43l-.82,2.48h2.43l-.82-2.48c-.17-.52-.37-1.43-.37-1.43Z"/><path d="M1117.77,79.29a5.07,5.07,0,0,1,3.45,1.17l-.84,1.25a4,4,0,0,0-2.47-.89,3,3,0,0,0-3.19,3.18,3.1,3.1,0,0,0,3.11,3.31,3.5,3.5,0,0,0,2.33-1V85.27h-1.43V83.83h2.94V88.7h-1.44v-.44c0-.2,0-.39,0-.39h0a3.94,3.94,0,0,1-2.69,1,4.56,4.56,0,0,1-4.55-4.8A4.67,4.67,0,0,1,1117.77,79.29Z"/><path d="M1124,79.45h1.69V88.7H1124Z"/><path d="M1066.76,79.45h3.58a2.84,2.84,0,0,1,3,3,2.87,2.87,0,0,1-3,3h-1.9V88.7h-1.69ZM1070,84a1.46,1.46,0,0,0,1.56-1.59,1.44,1.44,0,0,0-1.53-1.56h-1.61V84Z"/><path d="M1084.2,79.45h3a4.33,4.33,0,0,1,1.87.26,2.61,2.61,0,0,1,1.52,2.53,2.66,2.66,0,0,1-1.57,2.53v0a2.27,2.27,0,0,1,.31.46l1.91,3.45h-1.88l-1.84-3.45h-1.62V88.7h-1.69Zm3.2,4.34a1.34,1.34,0,0,0,1.46-1.46c0-.89-.38-1.43-1.7-1.43h-1.28v2.89Z"/><path d="M1098.71,86.33h-3.26l-.78,2.37h-1.74l3.27-9.25H1098l3.27,9.25h-1.74Zm-1.63-5.28s-.21.91-.39,1.43l-.82,2.48h2.43l-.82-2.48c-.17-.52-.37-1.43-.37-1.43Z"/><path d="M1103.27,79.45H1105l3.52,5.34a14,14,0,0,1,.77,1.43h0s-.09-.89-.09-1.43V79.45h1.67V88.7h-1.67l-3.52-5.33a14,14,0,0,1-.77-1.43h0s.09.89.09,1.43V88.7h-1.69Z"/><path d="M1079.67,86.33h-3.26l-.78,2.37h-1.74l3.27-9.25h1.77l3.27,9.25h-1.74ZM1078,81.05s-.21.91-.39,1.43l-.82,2.48h2.43l-.82-2.48c-.17-.52-.37-1.43-.37-1.43Z"/><rect x="1075.87" y="77.07" width="4.34" height="0.68"/><path d="M1047.8,55.68a10.29,10.29,0,0,1-7-4.77L1039,47.52l.26-.09a2.72,2.72,0,0,0,1.87-2.67,2.63,2.63,0,0,0-1.49-2.54,4.41,4.41,0,0,0-1.86-.27h-2.93v9.87h1V47.67s1.47,0,2.2,0l2,3.66a9.08,9.08,0,0,0,7.79,4.46c.39,0,.59,0,.59,0A3.17,3.17,0,0,0,1047.8,55.68Zm-12-8.88v-4h2a2.85,2.85,0,0,1,1.41.24,1.83,1.83,0,0,1,.9,1.73,1.85,1.85,0,0,1-2,2Z"/></g></g></svg>